<svg width="684" height="811" viewBox="0 0 684 811" fill="none" xmlns="http://www.w3.org/2000/svg">
<path d="M342 555C153.413 555 0.666702 631.373 0.666702 725.667V811H683.333V725.667C683.333 631.373 530.587 555 342 555ZM171.333 299C171.333 344.264 189.314 387.673 221.32 419.679C253.327 451.686 296.736 469.667 342 469.667C387.264 469.667 430.673 451.686 462.68 419.679C494.686 387.673 512.667 344.264 512.667 299M320.667 0.333252C307.867 0.333252 299.333 9.29325 299.333 21.6666V149.667H256.667V42.9999C256.667 42.9999 160.667 79.6932 160.667 203C160.667 203 128.667 208.973 128.667 256.333H555.333C553.2 208.973 523.333 203 523.333 203C523.333 79.6932 427.333 42.9999 427.333 42.9999V149.667H384.667V21.6666C384.667 9.29325 376.56 0.333252 363.333 0.333252H320.667Z" fill="#E23B45"/>
</svg>
