<?xml version="1.0" standalone="no"?>
<!DOCTYPE svg PUBLIC "-//W3C//DTD SVG 20010904//EN"
 "http://www.w3.org/TR/2001/REC-SVG-20010904/DTD/svg10.dtd">
<svg version="1.0" xmlns="http://www.w3.org/2000/svg"
 width="420.000000pt" height="420.000000pt" viewBox="0 0 420.000000 420.000000"
 preserveAspectRatio="xMidYMid meet">
<metadata>
Created by potrace 1.14, written by Peter Selinger 2001-2017
</metadata>
<g transform="translate(0.000000,420.000000) scale(0.100000,-0.100000)"
fill="#000000" stroke="none">
<path d="M1310 3012 c-497 -500 -905 -913 -907 -918 -2 -5 128 -140 287 -299
l290 -290 234 235 c128 129 238 236 245 238 8 3 11 -124 11 -480 l0 -483 365
-367 365 -366 0 1033 c0 569 3 1036 8 1038 4 3 40 7 81 8 68 4 75 2 84 -18 11
-26 39 -41 30 -16 -4 11 -2 14 8 11 8 -3 13 -10 12 -16 -1 -6 10 -13 25 -16
41 -8 204 0 232 12 21 8 33 6 65 -14 22 -13 52 -24 68 -24 l27 0 0 -85 c0 -46
-4 -94 -9 -107 -5 -13 -17 -50 -26 -83 -23 -83 -64 -165 -84 -166 -9 -1 -26 0
-39 1 -13 1 -37 -11 -57 -28 -41 -37 -71 -47 -90 -32 -15 12 -39 4 -30 -10 3
-5 0 -12 -6 -16 -8 -4 -9 -3 -5 4 4 7 3 12 -2 12 -20 0 -20 -31 0 -49 20 -19
54 -31 183 -66 33 -9 74 -20 90 -26 41 -13 55 9 55 86 0 60 1 62 33 77 25 12
38 28 52 65 10 26 30 66 44 88 20 31 26 57 31 121 l5 82 44 37 c45 37 69 40
127 18 8 -3 14 0 14 6 0 6 7 11 15 11 11 0 15 13 15 54 0 59 -27 118 -61 137
-22 11 -25 29 -5 29 7 0 20 8 27 17 13 15 11 16 -11 10 -14 -4 -33 -7 -43 -7
-10 0 -22 -11 -27 -25 -13 -33 -29 -32 -41 4 -13 37 -36 47 -139 60 -124 16
-170 14 -215 -10 -33 -17 -65 -21 -187 -26 -125 -5 -148 -4 -148 9 0 8 -16 41
-37 74 -20 32 -42 79 -48 104 -8 30 -18 46 -31 49 -10 2 -22 8 -26 15 -12 18
-10 1164 2 1171 6 4 215 -199 465 -451 l455 -457 -17 -46 c-15 -42 -48 -107
-77 -153 -8 -13 -7 -23 2 -39 9 -14 11 -37 7 -73 -8 -61 8 -86 54 -86 15 0 47
-14 70 -32 l44 -32 19 27 c21 28 58 37 58 13 0 -7 -7 -19 -15 -26 -20 -16 -12
-26 27 -34 18 -4 50 -19 71 -35 38 -29 97 -97 97 -112 0 -23 22 -3 60 54 23
34 47 62 53 62 8 0 13 -25 15 -67 3 -74 -5 -83 -37 -42 -29 36 -27 17 2 -26
41 -61 60 -110 66 -173 5 -49 10 -64 27 -72 46 -23 52 -33 47 -83 -3 -26 -9
-51 -14 -56 -5 -6 -9 -17 -9 -26 0 -68 -188 -340 -272 -394 -153 -98 -261
-207 -355 -361 -44 -72 -73 -128 -73 -140 0 -3 5 -5 10 -5 6 0 10 6 10 13 0
21 90 168 145 237 83 103 222 226 246 218 5 -2 -15 -43 -46 -91 -78 -125 -100
-176 -150 -352 -9 -33 -20 -67 -25 -75 -4 -9 -11 -31 -15 -50 -4 -19 -15 -46
-23 -60 -47 -77 -72 -111 -126 -168 -62 -65 -93 -80 -82 -39 3 12 11 54 16 92
6 39 18 112 27 163 9 51 13 95 9 99 -3 3 -6 -3 -6 -15 0 -12 -4 -30 -9 -40 -6
-9 -15 -57 -22 -107 -11 -92 -23 -164 -35 -223 -5 -25 -20 -43 -69 -78 -83
-58 -258 -160 -369 -213 -48 -23 -85 -45 -82 -48 9 -9 256 118 375 192 69 44
110 63 123 60 13 -5 18 -1 18 13 0 11 19 38 41 59 94 86 169 172 169 192 0 6
3 11 8 11 4 0 15 21 25 48 11 26 23 56 27 67 9 20 22 64 55 180 18 63 33 102
70 175 39 77 48 93 108 177 50 71 72 92 155 147 170 113 242 209 242 320 0 37
-7 72 -22 102 -17 38 -19 52 -11 74 13 36 6 74 -18 96 -21 19 -26 84 -10 126
6 17 5 30 -5 43 -11 15 -13 40 -8 105 4 68 1 100 -15 160 -32 118 -39 141 -57
167 -23 37 -65 24 -135 -40 -31 -28 -63 -57 -70 -63 -8 -6 -37 -37 -65 -68
-53 -58 -75 -66 -108 -41 -19 15 -19 16 -2 84 10 38 16 76 13 83 -2 7 6 34 19
60 39 77 33 77 -74 -2 -45 -33 -85 -60 -88 -60 -5 0 3 56 12 92 3 9 14 20 25
23 14 5 19 13 16 26 -3 10 1 23 9 30 24 20 15 89 -12 89 -8 0 -23 -6 -34 -12
-18 -12 -59 27 -482 455 l-463 467 -905 -908z m1614 -588 c31 -12 16 -24 -29
-24 -33 0 -45 4 -45 15 0 16 43 21 74 9z m842 -406 c23 -45 21 -146 -4 -195
-11 -21 -41 -62 -66 -90 -46 -51 -152 -131 -161 -121 -6 6 95 171 108 176 4 2
7 8 7 13 0 5 11 31 24 58 13 27 27 67 30 88 14 73 27 114 37 108 5 -4 16 -20
25 -37z"/>
<path d="M3405 3204 c-30 -15 -74 -61 -75 -78 0 -5 7 -17 16 -27 14 -15 13
-20 -4 -48 -18 -30 -18 -32 1 -91 15 -47 25 -62 43 -66 29 -7 29 -5 4 -54 -11
-22 -20 -45 -20 -53 0 -8 -9 -24 -20 -37 -27 -32 -53 -127 -32 -118 12 5 92
94 92 103 0 21 75 96 115 115 50 24 50 25 31 60 -16 28 -8 58 24 90 26 26 28
118 4 160 -32 54 -119 76 -179 44z"/>
<path d="M3202 2835 c0 -16 2 -22 5 -12 2 9 2 23 0 30 -3 6 -5 -1 -5 -18z"/>
<path d="M3115 2531 c-6 -5 -21 -11 -34 -13 -14 -1 -26 -9 -29 -15 -3 -10 13
-13 57 -13 68 0 82 10 46 34 -28 19 -28 19 -40 7z"/>
<path d="M3206 2455 c-19 -15 -19 -16 5 -57 20 -37 24 -56 24 -130 0 -47 3
-82 6 -76 4 7 9 6 13 -1 17 -27 62 -10 125 47 l63 58 -20 39 c-35 69 -121 135
-174 135 -13 0 -32 -7 -42 -15z m124 -151 c0 -17 -22 -14 -28 4 -2 7 3 12 12
12 9 0 16 -7 16 -16z"/>
<path d="M2855 463 c-11 -32 -22 -60 -25 -63 -11 -11 -58 -110 -52 -110 7 0
62 86 62 96 0 3 6 20 14 37 38 90 40 97 28 97 -4 0 -16 -26 -27 -57z"/>
</g>
</svg>
